<?xml version="1.0" encoding="UTF-8"?>
<svg id="Livello_1" data-name="Livello 1" xmlns="http://www.w3.org/2000/svg" viewBox="0 0 111.87 151.16">
  <defs>
    <style>
      .cls-1 {
        fill: #fff;
      }
    </style>
  </defs>
  <path d="m0,0v151.16h30.77v-16.02c0-4.41,3.57-7.98,7.98-7.98h34.35c4.41,0,7.98,3.57,7.98,7.98v16.02h30.77V0h-30.77v16.16c0,4.44-3.6,8.03-8.03,8.03h-34.31c-4.41,0-7.98-3.57-7.98-7.98V0H0Z"/>
  <rect class="cls-1" x="9.26" y="12.19" width="12.77" height="19.65"/>
  <rect class="cls-1" x="30.77" y="33.48" width="50.32" height="84" rx="9" ry="9"/>
  <rect class="cls-1" x="90" y="12.19" width="12.77" height="19.65"/>
  <rect class="cls-1" x="9.26" y="119.52" width="12.77" height="19.65"/>
  <rect class="cls-1" x="90" y="119.52" width="12.77" height="19.65"/>
  <rect class="cls-1" x="9.26" y="92.98" width="12.77" height="19.65"/>
  <rect class="cls-1" x="90" y="92.98" width="12.77" height="19.65"/>
  <rect class="cls-1" x="9.18" y="66.44" width="12.77" height="19.65"/>
  <rect class="cls-1" x="90" y="66.44" width="12.77" height="19.65"/>
  <rect class="cls-1" x="9.26" y="39.48" width="12.77" height="19.65"/>
  <rect class="cls-1" x="89.92" y="39.48" width="12.77" height="19.65"/>
  <path d="m70.11,64.86c-3.76-3.21-9.36-2.63-12.82.93l-1.35,1.39-1.35-1.39c-3.45-3.57-9.05-4.14-12.82-.93-4.31,3.68-4.54,10.29-.68,14.28l14.85,15.33,14.85-15.33c3.87-3.99,3.64-10.6-.67-14.28h0Z"/>
</svg>